<svg width="366" height="348" viewBox="0 0 366 348" fill="none" xmlns="http://www.w3.org/2000/svg">
<path fill-rule="evenodd" clip-rule="evenodd" d="M298.999 174C298.999 233.094 251.094 281 191.999 281C139.011 281 95.0183 242.483 86.493 191.919C81.7688 192.631 76.9283 193 71.9992 193C51.9097 193 33.2921 186.865 18.0156 176.416C19.3082 271.4 96.7082 348 191.999 348C288.097 348 365.999 270.098 365.999 174C365.999 77.9025 288.097 0 191.999 0C163.469 0 136.543 6.86651 112.782 19.0371C135.191 29.5573 152.656 48.4774 160.866 71.5999C170.717 68.6086 181.17 67 191.999 67C251.094 67 298.999 114.906 298.999 174Z" fill="#0099A7"/>
<circle cx="72" cy="102" r="61" stroke="#EF5646" stroke-width="22"/>
</svg>
